<svg width="378" height="409" viewBox="0 0 378 409" fill="none" xmlns="http://www.w3.org/2000/svg">
<g style="mix-blend-mode:hard-light">
<path fill-rule="evenodd" clip-rule="evenodd" d="M5.30131 322.228L4.55559 319.767L3.86757 317.288L3.23906 314.792L2.6718 312.28L2.16749 309.751L1.72787 307.207L1.35458 304.648L1.0492 302.076L0.813291 299.491L0.64827 296.895L0.555385 294.288L0.535888 291.672L0.590758 289.048L0.720795 286.419L0.926557 283.785L1.20836 281.149L1.56613 278.512L1.99948 275.877L2.50748 273.246L3.08881 270.621L3.74138 268.005L4.46253 265.4L5.24888 262.809L6.096 260.236L6.9987 257.684L7.95123 255.154L8.94737 252.651L9.98041 250.176L11.0435 247.732L12.1295 245.322L13.2314 242.947L14.3419 240.608L15.4539 238.307L16.5605 236.045L17.6549 233.822L18.7306 231.638L19.7814 229.493L20.8014 227.386L21.785 225.318L22.7272 223.286L23.6232 221.289L24.469 219.326L25.2605 217.395L25.9947 215.493L26.6686 213.619L27.2798 211.77L27.8265 209.944L28.3073 208.138L28.7212 206.349L29.0677 204.576L29.3468 202.814L29.5587 201.061L29.7044 199.316L29.7848 197.574L29.8015 195.833L29.7565 194.091L29.6519 192.345L29.4902 190.593L29.2743 188.833L29.0073 187.063L28.6925 185.28L28.3335 183.484L27.934 181.671L27.4981 179.842L27.0299 177.994L26.5336 176.127L26.0137 174.24L25.4748 172.332L24.9215 170.402L24.3583 168.452L23.7901 166.479L23.2217 164.486L22.6577 162.471L22.103 160.436L21.5623 158.382L21.0402 156.309L20.5411 154.219L20.0698 152.112L19.6304 149.992L19.2271 147.858L18.864 145.714L18.5448 143.56L18.2732 141.4L18.0524 139.235L17.8856 137.068L17.7754 134.9L17.7244 132.734L17.7347 130.573L17.808 128.419L17.9457 126.273L18.1488 124.139L18.4179 122.018L18.7531 119.912L19.1542 117.824L19.6204 115.754L20.1507 113.704L20.7434 111.675L21.3965 109.668L22.1077 107.683L22.8742 105.721L23.6927 103.781L24.5598 101.863L25.4716 99.967L26.4241 98.0903L27.413 96.232L28.4337 94.3901L29.482 92.5624L30.5532 90.7463L31.6429 88.9392L32.7468 87.1382L33.8609 85.3402L34.9816 83.5423L36.1058 81.7415L37.2308 79.9353L38.355 78.1214L39.4774 76.2979L40.5979 74.4641L41.718 72.6197L42.8393 70.7656L43.9645 68.903L45.0963 67.0335L46.2375 65.1592L47.3914 63.2827L48.5613 61.4067L49.7502 59.5343L50.9612 57.6687L52.1975 55.8133L53.4619 53.9717L54.757 52.1474L56.0853 50.3442L57.449 48.5658L58.85 46.8157L60.29 45.0977L61.7705 43.4151L63.2925 41.7715L64.8568 40.1702L66.464 38.6142L68.1145 37.1066L69.8081 35.6501L71.5447 34.2473L73.3237 32.9007L75.1443 31.6123L77.0057 30.384L78.9066 29.2175L80.8456 28.1141L82.8212 27.075L84.8316 26.101L86.875 25.1927L88.9492 24.3504L91.0523 23.5741L93.1818 22.8635L95.3356 22.2181L97.5112 21.637L99.7063 21.1192L101.918 20.6633L104.145 20.2676L106.383 19.9304L108.631 19.6494L110.886 19.4223L113.146 19.2465L115.409 19.1193L117.672 19.0377L119.933 18.9985L122.19 18.9983L124.441 19.0339L126.686 19.1015L128.921 19.1975L131.146 19.3182L133.359 19.4597L135.559 19.6181L137.745 19.7897L139.917 19.9704L142.074 20.1566L144.216 20.3443L146.342 20.53L148.452 20.7099L150.546 20.8807L152.625 21.0389L154.69 21.1813L156.74 21.305L158.777 21.4071L160.801 21.4851L162.815 21.5364L164.818 21.5589L166.812 21.5508L168.799 21.5104L170.78 21.4361L172.756 21.3271L174.73 21.1822L176.703 21.0009L178.677 20.7829L180.653 20.528L182.633 20.2364L184.619 19.9084L186.613 19.5447L188.616 19.146L190.63 18.7135L192.656 18.2483L194.697 17.7519L196.753 17.2259L198.827 16.672L200.918 16.0923L203.029 15.4888L205.161 14.8636L207.314 14.2193L209.49 13.5583L211.69 12.8835L213.913 12.1976L216.161 11.5038L218.434 10.8055L220.732 10.1062L223.055 9.41001L225.403 8.72104L227.775 8.04308L230.171 7.37993L232.59 6.73507L235.032 6.11181L237.495 5.5132L239.979 4.942L242.483 4.40077L245.006 3.89181L247.547 3.41719L250.105 2.9787L252.679 2.57797L255.268 2.21648L257.871 1.89542L260.487 1.61589L263.116 1.37883L265.755 1.18516L268.405 1.03553L271.064 0.930672L273.731 0.871149L276.405 0.857573L279.085 0.890477L281.771 0.970386L284.46 1.09784L287.152 1.27339L289.846 1.49764L292.54 1.77114L295.233 2.09462L297.924 2.46866L300.612 2.89404L303.294 3.37156L305.969 3.902L308.635 4.48619L311.291 5.12504L313.934 5.81951L316.563 6.57048L319.176 7.37894L321.769 8.24592L324.342 9.17233L326.89 10.1592L329.413 11.2074L331.906 12.318L334.368 13.4918L336.796 14.7297L339.185 16.0325L341.534 17.401L343.84 18.8357L346.099 20.3373L348.307 21.9062L350.462 23.5428L352.56 25.2474L354.598 27.0201L356.573 28.8609L358.481 30.7696L360.318 32.746L362.082 34.7896L363.768 36.8998L365.375 39.0758L366.898 41.3166L368.334 43.6212L369.681 45.9881L370.935 48.4159L372.094 50.9028L373.156 53.447L374.117 56.0462L374.976 58.6983L375.731 61.4007L376.379 64.1507L376.921 66.9454L377.354 69.7817L377.678 72.6563L377.893 75.5658L377.998 78.5066L377.994 81.4749L377.881 84.4667L377.662 87.478L377.337 90.5046L376.909 93.5423L376.381 96.5866L375.755 99.6331L375.036 102.677L374.227 105.715L373.334 108.742L372.362 111.753L371.316 114.744L370.202 117.712L369.028 120.651L367.799 123.559L366.523 126.432L365.208 129.265L363.862 132.057L362.491 134.805L361.104 137.506L359.709 140.158L358.313 142.76L356.924 145.31L355.55 147.807L354.198 150.251L352.875 152.643L351.586 154.982L350.337 157.269L349.133 159.505L347.977 161.692L346.874 163.832L345.826 165.926L344.834 167.978L343.9 169.989L343.025 171.962L342.207 173.9L341.447 175.805L340.742 177.68L340.091 179.528L339.492 181.351L338.94 183.152L338.433 184.934L337.968 186.698L337.539 188.447L337.145 190.182L336.779 191.906L336.438 193.619L336.118 195.324L335.814 197.02L335.523 198.711L335.24 200.395L334.962 202.073L334.685 203.747L334.406 205.416L334.122 207.08L333.831 208.74L333.53 210.396L333.218 212.047L332.894 213.693L332.555 215.334L332.203 216.97L331.835 218.601L331.454 220.227L331.058 221.848L330.65 223.464L330.23 225.074L329.8 226.681L329.362 228.283L328.917 229.881L328.469 231.477L328.02 233.071L327.572 234.664L327.128 236.258L326.692 237.854L326.266 239.453L325.853 241.057L325.456 242.669L325.078 244.29L324.722 245.922L324.391 247.568L324.088 249.23L323.814 250.91L323.572 252.612L323.363 254.337L323.191 256.089L323.055 257.87L322.958 259.683L322.9 261.531L322.882 263.416L322.904 265.34L322.966 267.307L323.067 269.318L323.207 271.376L323.385 273.483L323.599 275.64L323.848 277.85L324.13 280.114L324.442 282.434L324.781 284.809L325.145 287.242L325.531 289.732L325.934 292.28L326.352 294.886L326.779 297.548L327.211 300.267L327.645 303.041L328.075 305.868L328.495 308.747L328.902 311.674L329.288 314.647L329.649 317.661L329.977 320.714L330.269 323.801L330.516 326.915L330.713 330.053L330.854 333.208L330.934 336.374L330.946 339.544L330.884 342.711L330.742 345.867L330.516 349.004L330.199 352.114L329.787 355.188L329.274 358.217L328.656 361.191L327.929 364.101L327.09 366.937L326.135 369.69L325.061 372.35L323.867 374.907L322.551 377.351L321.113 379.674L319.551 381.867L317.868 383.922L316.063 385.83L314.139 387.583L312.099 389.176L309.946 390.602L307.683 391.856L305.315 392.933L302.847 393.829L300.286 394.543L297.636 395.071L294.905 395.414L292.1 395.571L289.229 395.544L286.298 395.335L283.317 394.947L280.294 394.385L277.236 393.655L274.152 392.762L271.052 391.714L267.942 390.519L264.832 389.187L261.729 387.729L258.641 386.154L255.576 384.475L252.541 382.703L249.543 380.853L246.587 378.938L243.68 376.971L240.826 374.967L238.031 372.941L235.297 370.907L232.629 368.88L230.028 366.875L227.497 364.907L225.037 362.99L222.648 361.139L220.33 359.366L218.083 357.686L215.903 356.111L213.79 354.653L211.74 353.322L209.751 352.13L207.816 351.086L205.934 350.197L204.097 349.471L202.301 348.914L200.54 348.531L198.808 348.326L197.099 348.3L195.406 348.456L193.722 348.791L192.042 349.306L190.358 349.996L188.664 350.858L186.954 351.887L185.221 353.074L183.461 354.413L181.667 355.895L179.835 357.508L177.96 359.243L176.038 361.087L174.067 363.027L172.042 365.051L169.962 367.144L167.826 369.292L165.632 371.481L163.381 373.697L161.071 375.926L158.705 378.154L156.282 380.369L153.806 382.558L151.278 384.711L148.7 386.818L146.075 388.87L143.405 390.858L140.694 392.773L137.946 394.607L135.164 396.351L132.353 397.998L129.516 399.541L126.659 400.973L123.786 402.288L120.902 403.482L118.012 404.551L115.119 405.491L112.229 406.299L109.347 406.974L106.476 407.514L103.62 407.921L100.784 408.193L97.9713 408.332L95.185 408.34L92.4283 408.219L89.704 407.972L87.0146 407.602L84.3623 407.114L81.7489 406.511L79.1761 405.797L76.6449 404.978L74.1566 404.057L71.7119 403.041L69.311 401.934L66.9543 400.741L64.6419 399.467L62.3734 398.117L60.1486 396.696L57.9669 395.209L55.8278 393.661L53.7304 392.055L51.674 390.396L49.6578 388.687L47.6808 386.934L45.7423 385.138L43.8413 383.304L41.977 381.434L40.1487 379.53L38.3556 377.596L36.5972 375.633L34.873 373.643L33.1824 371.628L31.5254 369.59L29.9016 367.529L28.3111 365.446L26.7541 363.342L25.2306 361.219L23.7412 359.076L22.2863 356.913L20.8666 354.732L19.4827 352.532L18.1357 350.313L16.8266 348.076L15.5563 345.82L14.3262 343.545L13.1376 341.252L11.9918 338.939L10.8903 336.608L9.83467 334.258L8.82649 331.89L7.86735 329.502L6.95896 327.096L6.10302 324.671L5.30131 322.228Z" fill="#C97A1D" style="mix-blend-mode:plus-darker"/>
</g>
</svg>
