<svg width="447" height="399" viewBox="0 0 447 399" fill="none" xmlns="http://www.w3.org/2000/svg">
<g style="mix-blend-mode:hard-light">
<path fill-rule="evenodd" clip-rule="evenodd" d="M300.147 396.607C296.13 397.684 291.939 398.262 287.574 398.34C283.167 398.496 278.602 398.212 273.88 397.489C269.235 396.809 264.429 395.787 259.461 394.425C254.536 392.985 249.564 391.269 244.546 389.275C239.451 387.238 234.387 384.967 229.352 382.462C224.241 379.914 219.199 377.153 214.225 374.179C209.132 371.238 204.184 368.128 199.381 364.847C194.501 361.524 189.724 358.106 185.049 354.596C180.494 351.051 176.058 347.472 171.742 343.859C167.468 340.17 163.39 336.49 159.509 332.818C155.67 329.07 152.006 325.368 148.516 321.714C144.993 317.941 141.644 314.215 138.47 310.536C135.262 306.737 132.169 303.002 129.191 299.332C126.213 295.662 123.333 291.996 120.551 288.334C117.727 284.749 114.962 281.148 112.257 277.529C109.509 273.987 106.799 270.466 104.128 266.967C101.413 263.544 98.6994 260.121 95.9853 256.698C93.2285 253.352 90.3906 250.062 87.4716 246.826C84.6293 243.633 81.7059 240.496 78.7014 237.414C75.5776 234.366 72.411 231.394 69.2016 228.499C65.9922 225.604 62.6804 222.803 59.2662 220.096C55.8519 217.388 52.4163 214.719 48.9593 212.088C45.5789 209.5 42.2156 206.971 38.8691 204.502C35.5994 202.076 32.4063 199.693 29.2898 197.352C26.1733 195.012 23.2316 192.719 20.4645 190.472C17.6974 188.226 15.1264 185.989 12.7514 183.76C10.4531 181.574 8.44892 179.401 6.73879 177.242C4.90927 175.116 3.47187 173.008 2.42659 170.918C1.3474 168.708 0.67728 166.576 0.416246 164.521C0.0785539 162.423 0.214057 160.288 0.822755 158.115C1.46537 156.061 2.44481 153.944 3.76109 151.763C5.15402 149.625 6.84105 147.5 8.82217 145.389C10.9227 143.244 13.2407 141.069 15.7761 138.864C18.3115 136.66 21.0429 134.464 23.9704 132.277C26.8213 130.048 29.8299 127.806 32.9962 125.551C36.1625 123.296 39.3885 121.025 42.6742 118.736C45.96 116.447 49.2457 114.159 52.5314 111.87C55.7832 109.462 58.9753 107.071 62.1077 104.697C65.1635 102.28 68.1212 99.8589 70.9809 97.4332C73.7639 94.9649 76.3723 92.4494 78.8059 89.8867C81.1969 87.4007 83.4514 84.8889 85.5696 82.3514C87.6111 79.7711 89.5333 77.2247 91.336 74.7122C93.1387 72.1998 94.8051 69.6616 96.3351 67.0976C97.899 64.653 99.4033 62.2254 100.848 59.8148C102.25 57.4808 103.592 55.1638 104.874 52.8637C106.19 50.6831 107.485 48.5408 108.759 46.4368C110.032 44.3328 111.34 42.3483 112.681 40.4831C113.98 38.6946 115.334 36.9872 116.743 35.3609C118.152 33.7345 119.672 32.2703 121.302 30.9683C122.856 29.6235 124.537 28.5006 126.346 27.5995C128.12 26.579 130.044 25.742 132.117 25.0886C134.232 24.3584 136.42 23.7691 138.679 23.3205C140.982 22.7953 143.378 22.3725 145.868 22.0521C148.434 21.7745 151.137 21.5227 153.976 21.2966C156.773 21.1472 159.689 20.9639 162.724 20.7467C165.793 20.6488 168.982 20.5171 172.29 20.3514C175.598 20.1857 179.046 19.9477 182.636 19.6375C186.259 19.4467 189.985 19.1622 193.813 18.7841C197.718 18.4488 201.726 18.0198 205.836 17.4972C209.988 16.8979 214.282 16.2264 218.716 15.4826C223.15 14.7388 227.687 13.9013 232.326 12.9703C237.041 12.0819 241.817 11.1767 246.652 10.2544C251.53 9.25548 256.446 8.27793 261.401 7.32174C266.432 6.4083 271.501 5.51622 276.609 4.64551C281.674 3.85147 286.794 3.13851 291.97 2.50662C297.103 1.9514 302.232 1.49421 307.356 1.13507C312.556 0.818659 317.689 0.715303 322.752 0.824979C327.859 0.857987 332.913 1.16373 337.917 1.74223C342.92 2.32073 347.872 3.17197 352.772 4.29596C357.629 5.49662 362.435 6.97001 367.189 8.71615C371.824 10.4962 376.386 12.5874 380.875 14.9896C385.287 17.3491 389.549 19.9769 393.662 22.8731C397.852 25.812 401.837 28.9382 405.617 32.2516C409.354 35.6417 412.907 39.1808 416.278 42.8688C419.605 46.6334 422.749 50.547 425.709 54.6095C428.55 58.7059 431.131 62.9085 433.451 67.2173C435.814 71.4495 437.858 75.8048 439.581 80.2832C441.382 84.8044 442.807 89.3677 443.856 93.9731C444.949 98.5018 445.666 103.073 446.009 107.685C446.428 112.341 446.416 116.958 445.974 121.535C445.651 126.079 444.954 130.665 443.881 135.293C442.851 139.844 441.543 144.441 439.959 149.086C438.417 153.653 436.598 158.267 434.502 162.927C432.406 167.588 430.153 172.261 427.741 176.947C425.33 181.632 422.739 186.369 419.97 191.156C417.32 195.909 414.567 200.756 411.712 205.697C408.899 210.561 406.044 215.502 403.146 220.519C400.248 225.537 397.384 230.673 394.554 235.93C391.69 241.066 388.937 246.365 386.294 251.826C383.618 257.168 381.034 262.612 378.545 268.159C376.132 273.748 373.758 279.359 371.421 284.991C369.162 290.666 366.962 296.323 364.822 301.964C362.682 307.605 360.546 313.148 358.415 318.593C356.283 324.037 354.118 329.363 351.919 334.569C349.763 339.698 347.534 344.686 345.233 349.534C342.975 354.305 340.589 358.854 338.076 363.182C335.606 367.432 332.991 371.402 330.232 375.089C327.438 378.657 324.484 381.884 321.367 384.77C318.251 387.656 314.94 390.081 311.433 392.045C307.883 394.086 304.121 395.606 300.147 396.607Z" fill="#E75A7C" style="mix-blend-mode:plus-darker"/>
</g>
</svg>
