<svg width="700" height="918" viewBox="0 0 700 918" fill="none" xmlns="http://www.w3.org/2000/svg">
<path fill-rule="evenodd" clip-rule="evenodd" d="M64.6334 701.294C68.989 709.861 73.5 718.326 78.1667 726.689C82.8334 735.053 87.6556 743.314 92.6334 751.473C97.7667 759.429 103.056 767.384 108.5 775.339C113.944 783.091 119.544 790.638 125.3 797.982C131.211 805.325 137.278 812.362 143.5 819.094C149.722 826.029 156.1 832.659 162.633 838.982C169.167 845.306 175.933 851.323 182.933 857.035C189.933 862.746 197.089 868.05 204.4 872.945C211.711 877.841 219.178 882.329 226.8 886.408C234.422 890.692 242.278 894.465 250.367 897.729C258.3 900.993 266.389 903.849 274.633 906.297C283.033 908.744 291.511 910.886 300.067 912.722C308.622 914.354 317.256 915.578 325.967 916.394C334.678 917.21 343.467 917.72 352.333 917.924C361.2 918.128 370.067 917.923 378.933 917.312C387.956 916.7 396.978 915.68 406 914.252C414.867 913.028 423.811 911.498 432.833 909.662C441.7 907.622 450.567 905.379 459.433 902.931C468.3 900.279 477.089 897.321 485.8 894.058C494.511 890.998 503.144 887.632 511.7 883.96C520.256 880.085 528.656 876.005 536.9 871.721C545.144 867.438 553.233 862.95 561.167 858.258C568.944 853.363 576.567 848.263 584.033 842.96C591.5 837.656 598.733 832.047 605.733 826.131C612.733 820.216 619.344 814.096 625.567 807.773C631.944 801.449 637.933 794.922 643.533 788.19C649.289 781.459 654.578 774.421 659.4 767.078C664.378 759.939 668.889 752.493 672.933 744.742C676.978 737.195 680.556 729.341 683.667 721.182C686.778 713.023 689.344 704.761 691.367 696.398C693.544 687.831 695.256 679.161 696.5 670.39C697.744 661.415 698.678 652.338 699.3 643.158C699.767 634.183 700 625.004 700 615.621C700 606.034 699.689 596.446 699.067 586.859C698.6 577.272 697.978 567.583 697.2 557.792C696.267 548.204 695.333 538.413 694.4 528.418C693.311 518.627 692.222 508.734 691.133 498.738C690.2 488.947 689.189 479.054 688.1 469.059C687.167 459.064 686.389 449.171 685.767 439.379C684.989 429.588 684.444 419.797 684.133 410.006C683.667 400.215 683.356 390.423 683.2 380.632C683.044 371.045 682.967 361.458 682.967 351.871C682.967 342.487 682.967 333.104 682.967 323.721C682.967 314.542 682.889 305.363 682.733 296.183C682.733 287.208 682.5 278.233 682.033 269.258C681.722 260.486 681.178 251.919 680.4 243.556C679.778 234.988 678.844 226.625 677.6 218.466C676.356 210.306 674.878 202.249 673.167 194.294C671.3 186.542 669.122 178.995 666.633 171.652C664.144 164.104 661.189 156.863 657.767 149.928C654.5 142.992 650.767 136.261 646.567 129.733C642.522 123.206 638.089 116.882 633.267 110.763C628.444 104.643 623.311 98.8298 617.867 93.3222C612.422 87.6107 606.667 82.2052 600.6 77.1056C594.689 72.006 588.467 67.1104 581.933 62.4188C575.556 57.9312 568.944 53.5455 562.1 49.2619C555.256 45.1822 548.256 41.3066 541.1 37.6349C533.944 33.9632 526.633 30.5975 519.167 27.5377C511.7 24.478 504.233 21.6222 496.767 18.9704C489.144 16.3186 481.522 13.9728 473.9 11.933C466.122 9.89318 458.422 8.15932 450.8 6.73144C443.022 5.09958 435.244 3.77369 427.467 2.75377C419.689 1.73386 411.911 1.01992 404.133 0.611949C396.356 0.203983 388.578 0 380.8 0C373.022 0 365.322 0.305975 357.7 0.917924C349.922 1.52987 342.222 2.3458 334.6 3.36572C326.978 4.58962 319.356 5.91551 311.733 7.34339C304.111 8.97525 296.567 10.9131 289.1 13.1569C281.633 15.1967 274.244 17.5425 266.933 20.1943C259.622 22.8461 252.389 25.7019 245.233 28.7616C238.078 31.8213 231 35.1871 224 38.8588C217.156 42.5305 210.311 46.4061 203.467 50.4858C196.778 54.3615 190.167 58.6451 183.633 63.3367C177.1 67.8243 170.644 72.516 164.267 77.4115C158.044 82.3071 151.9 87.5087 145.833 93.0163C139.922 98.3198 134.089 103.827 128.333 109.539C122.578 115.25 116.978 121.166 111.533 127.285C106.244 133.609 101.033 139.932 95.9 146.256C90.9222 152.783 86.0222 159.515 81.2 166.45C76.5333 173.386 72.0222 180.423 67.6667 187.562C63.3112 194.702 59.189 202.045 55.3 209.593C51.4111 216.936 47.6778 224.483 44.1 232.235C40.5222 239.986 37.1778 247.839 34.0667 255.795C30.9556 263.75 28.0778 271.909 25.4333 280.273C22.6334 288.432 20.0667 296.693 17.7334 305.057C15.5556 313.42 13.5334 321.885 11.6667 330.452C9.80005 339.02 8.16669 347.689 6.76666 356.46C5.3667 365.028 4.12219 373.697 3.03333 382.468C2.09998 391.239 1.40002 400.113 0.93335 409.088C0.311096 417.859 0 426.732 0 435.708C0 444.683 0.155579 453.556 0.466736 462.327C0.933411 471.303 1.5556 480.278 2.33337 489.253C3.26666 498.228 4.35559 507.204 5.60004 516.179C7 525.154 8.55554 534.13 10.2667 543.105C11.9778 552.08 13.9222 561.055 16.1 570.031C18.2778 578.802 20.6889 587.675 23.3334 596.65C25.9778 605.422 28.7778 614.295 31.7334 623.27C34.8445 632.041 38.1111 640.813 41.5333 649.584C44.9556 658.151 48.6111 666.82 52.5 675.592C56.3889 684.159 60.4334 692.726 64.6334 701.294Z" fill="#071013"/>
</svg>
