<svg width="440" height="444" viewBox="0 0 440 444" fill="none" xmlns="http://www.w3.org/2000/svg">
<g style="mix-blend-mode:hard-light">
<path fill-rule="evenodd" clip-rule="evenodd" d="M338.447 318.685C335.152 322.853 332.053 327.072 329.148 331.343C326.244 335.614 323.437 339.935 320.728 344.307C318.115 348.778 315.551 353.201 313.038 357.575C310.524 361.95 308.108 366.326 305.791 370.703C303.375 375.079 300.961 379.357 298.548 383.537C296.136 387.619 293.677 391.651 291.169 395.634C288.662 399.518 286.109 403.255 283.508 406.844C280.81 410.432 277.968 413.773 274.983 416.866C272.096 419.961 268.967 422.807 265.597 425.405C262.325 428.005 258.812 430.306 255.058 432.31C251.305 434.315 247.359 436.022 243.222 437.433C239.085 438.843 234.755 440.006 230.233 440.921C225.81 441.739 221.244 442.31 216.535 442.634C211.922 443.058 207.166 443.185 202.267 443.016C197.369 442.848 192.473 442.483 187.58 441.922C182.591 441.262 177.604 440.455 172.618 439.501C167.635 438.448 162.702 437.25 157.82 435.905C152.842 434.461 147.964 432.871 143.186 431.136C138.41 429.303 133.684 427.372 129.008 425.344C124.432 423.22 119.955 420.999 115.578 418.681C111.3 416.267 107.121 413.756 103.042 411.148C98.9631 408.541 95.0821 405.789 91.3992 402.894C87.6169 400.095 84.0327 397.151 80.6466 394.064C77.2605 390.976 74.0221 387.842 70.9315 384.661C67.8422 381.381 64.9987 378.057 62.4008 374.687C59.705 371.315 57.2058 367.897 54.9034 364.433C52.601 360.969 50.5442 357.46 48.7332 353.905C46.9236 350.252 45.31 346.602 43.8924 342.955C42.4734 339.406 41.2517 335.762 40.2275 332.022C39.2999 328.382 38.6173 324.745 38.1797 321.112C37.6454 317.38 37.3562 313.651 37.312 309.926C37.1684 306.297 37.1724 302.621 37.3242 298.899C37.574 295.178 37.8735 291.408 38.2227 287.591C38.5704 283.871 38.9679 280.103 39.4151 276.287C39.8623 272.47 40.2612 268.604 40.6118 264.689C41.059 260.872 41.4096 256.957 41.6636 252.942C42.0142 249.026 42.2192 245.01 42.2787 240.894C42.3367 236.876 42.2491 232.758 42.016 228.54C41.6835 224.418 41.2053 220.197 40.5816 215.875C39.8585 211.649 38.8917 207.323 37.6815 202.894C36.4712 198.466 35.0656 193.986 33.4647 189.454C31.9618 184.923 30.2629 180.39 28.3681 175.854C26.5712 171.319 24.677 166.734 22.6856 162.098C20.7921 157.464 18.8497 152.829 16.8582 148.193C14.9648 143.559 13.1196 138.974 11.3227 134.439C9.52726 129.807 7.92638 125.275 6.52009 120.843C5.01721 116.313 3.75862 111.835 2.74432 107.409C1.73002 102.984 1.00901 98.6115 0.581288 94.2925C0.0555666 89.9721 -0.0305764 85.756 0.322859 81.6443C0.578296 77.5312 1.22502 73.4728 2.26303 69.469C3.39762 65.5646 4.8738 61.7632 6.69155 58.0647C8.60872 54.2697 10.8171 50.6748 13.3166 47.2803C15.9155 43.7891 18.7565 40.4975 21.8398 37.4054C25.0224 34.2168 28.4473 31.2276 32.1143 28.438C35.7827 25.5504 39.6925 22.9114 43.8438 20.5208C47.9966 18.0323 52.2928 15.7909 56.7324 13.7966C61.2701 11.8038 65.9029 10.0083 70.6309 8.41026C75.4569 6.81363 80.3283 5.46271 85.2453 4.35748C90.1622 3.25226 95.1736 2.39345 100.279 1.78105C105.385 1.16866 110.488 0.801254 115.586 0.678849C120.684 0.654442 125.777 0.875032 130.868 1.34062C135.959 1.70821 141.047 2.36979 146.13 3.32537C151.215 4.18295 156.247 5.23582 161.228 6.48398C166.306 7.83155 171.283 9.32471 176.161 10.9634C181.137 12.5056 186.013 14.2423 190.788 16.1737C195.563 18.105 200.287 20.1826 204.96 22.4065C209.634 24.5324 214.208 26.8039 218.682 29.2209C223.158 31.54 227.485 33.955 231.663 36.4658C235.94 38.978 240.118 41.5378 244.197 44.1452C248.178 46.7512 252.06 49.4048 255.844 52.1059C259.629 54.7091 263.267 57.3591 266.756 60.056C270.344 62.7544 273.785 65.4506 277.079 68.1447C280.469 70.9382 283.81 73.7309 287.103 76.523C290.396 79.2171 293.64 82.0085 296.832 84.8971C300.027 87.6878 303.221 90.4785 306.415 93.2691C309.61 96.0598 312.852 98.9002 316.143 101.79C319.336 104.679 322.627 107.569 326.016 110.46C329.405 113.352 332.843 116.244 336.33 119.137C339.817 122.03 343.451 124.925 347.232 127.822C350.913 130.816 354.742 133.763 358.719 136.663C362.597 139.659 366.622 142.609 370.795 145.512C374.868 148.511 378.893 151.51 382.868 154.508C386.943 157.409 390.968 160.359 394.944 163.357C398.821 166.354 402.601 169.3 406.284 172.195C409.966 175.189 413.403 178.13 416.596 181.019C419.787 184.006 422.735 186.94 425.438 189.821C428.14 192.703 430.451 195.579 432.37 198.449C434.386 201.419 436.01 204.334 437.243 207.194C438.379 209.955 439.025 212.758 439.18 215.603C439.433 218.449 439.148 221.238 438.324 223.971C437.5 226.704 436.187 229.429 434.383 232.148C432.578 234.964 430.431 237.727 427.941 240.435C425.352 243.241 422.469 246.041 419.292 248.838C416.115 251.635 412.693 254.477 409.024 257.365C405.354 260.35 401.538 263.334 397.574 266.315C393.512 269.295 389.4 272.372 385.237 275.547C381.172 278.723 377.057 281.996 372.892 285.366C368.726 288.737 364.608 292.206 360.538 295.774C356.566 299.343 352.738 303.062 349.056 306.929C345.277 310.697 341.74 314.616 338.447 318.685Z" fill="#8338EC"/>
</g>
</svg>
