<svg width="450" height="450" viewBox="0 0 450 450" fill="none" xmlns="http://www.w3.org/2000/svg">
<g style="mix-blend-mode:hard-light">
<path fill-rule="evenodd" clip-rule="evenodd" d="M408.302 324.591C405.302 326.191 402.152 327.491 398.852 328.491C395.553 329.591 392.103 330.491 388.503 331.191C384.903 331.891 381.203 332.491 377.403 332.991C373.604 333.491 369.704 333.941 365.704 334.341C361.704 334.741 357.654 335.191 353.555 335.691C349.355 336.191 345.155 336.741 340.955 337.341C336.755 338.041 332.506 338.941 328.206 340.041C323.906 341.141 319.656 342.441 315.456 343.94C311.157 345.54 306.907 347.44 302.707 349.64C298.507 351.94 294.357 354.54 290.258 357.44C286.158 360.44 282.058 363.74 277.958 367.34C273.958 370.94 270.009 374.69 266.109 378.589C262.209 382.589 258.359 386.689 254.559 390.889C250.859 394.989 247.16 399.139 243.46 403.339C239.76 407.439 236.11 411.489 232.51 415.488C228.911 419.388 225.411 423.138 222.011 426.738C218.511 430.238 215.061 433.438 211.661 436.338C208.362 439.238 205.062 441.738 201.762 443.838C198.562 445.938 195.412 447.488 192.312 448.488C189.112 449.588 186.013 450.088 183.013 449.988C180.013 449.888 177.063 449.238 174.163 448.038C171.163 446.838 168.213 445.138 165.314 442.938C162.514 440.738 159.664 438.138 156.764 435.138C153.864 432.138 150.964 428.788 148.064 425.088C145.165 421.388 142.265 417.438 139.365 413.239C136.465 408.939 133.465 404.439 130.365 399.739C127.365 395.039 124.316 390.189 121.216 385.189C118.016 380.189 114.766 375.09 111.466 369.89C108.166 364.69 104.766 359.49 101.267 354.29C97.8668 349.09 94.3169 343.89 90.6171 338.691C86.9173 333.591 83.1675 328.491 79.3677 323.391C75.5678 318.291 71.768 313.191 67.9682 308.091C64.0684 302.992 60.2686 297.942 56.5687 292.942C52.7689 287.842 49.0691 282.742 45.4693 277.642C41.7694 272.642 38.2696 267.543 34.9698 262.343C31.5699 257.243 28.3701 252.043 25.3702 246.743C22.2704 241.543 19.4205 236.293 16.8206 230.994C14.2208 225.594 11.9209 220.144 9.92096 214.644C7.82106 209.244 6.07114 203.694 4.67121 197.995C3.17128 192.295 2.07133 186.545 1.37136 180.745C0.571401 174.845 0.121423 168.945 0.0214276 163.045C-0.0785677 157.046 0.17142 151.046 0.771392 145.046C1.27137 139.046 2.12133 133.096 3.32127 127.196C4.42122 121.297 5.82115 115.447 7.52107 109.647C9.22099 103.847 11.1709 98.1973 13.3708 92.6974C15.5707 87.0976 18.0206 81.6977 20.7204 76.4979C23.4203 71.298 26.3202 66.2982 29.42 61.4983C32.6199 56.5984 35.9697 51.9986 39.4695 47.6987C42.9694 43.3988 46.6692 39.3989 50.569 35.699C54.4688 31.8991 58.5186 28.4492 62.7184 25.3493C66.9182 22.2494 71.218 19.4995 75.6178 17.0995C80.1176 14.5996 84.6674 12.3997 89.2672 10.4997C93.967 8.69976 98.6667 7.0998 103.367 5.69984C108.166 4.39988 113.016 3.29991 117.916 2.39993C122.816 1.59996 127.715 0.999972 132.615 0.599983C137.515 0.199994 142.365 0 147.164 0C152.064 0 156.914 0.199994 161.714 0.599983C166.414 0.899975 171.113 1.39996 175.813 2.09994C180.413 2.79992 184.913 3.6499 189.312 4.64987C193.712 5.54985 198.012 6.59982 202.212 7.79978C206.312 8.99975 210.361 10.2497 214.361 11.5497C218.261 12.9496 222.061 14.3996 225.761 15.8996C229.561 17.3995 233.26 18.8995 236.86 20.3994C240.46 21.9994 244.01 23.5993 247.51 25.1993C251.009 26.6993 254.509 28.2492 258.009 29.8492C261.509 31.4491 264.959 32.9491 268.359 34.349C271.759 35.849 275.208 37.299 278.708 38.6989C282.208 39.9989 285.708 41.2489 289.208 42.4488C292.807 43.5488 296.407 44.5988 300.007 45.5987C303.707 46.4987 307.457 47.2987 311.257 47.9987C315.056 48.6987 318.906 49.2986 322.806 49.7986C326.706 50.1986 330.606 50.5986 334.505 50.9986C338.505 51.3986 342.455 51.7486 346.355 52.0486C350.355 52.4485 354.305 52.8485 358.204 53.2485C362.104 53.6485 365.954 54.1485 369.754 54.7485C373.554 55.3485 377.253 56.0484 380.853 56.8484C384.453 57.6484 388.003 58.5984 391.503 59.6983C394.903 60.7983 398.202 62.1483 401.402 63.7482C404.502 65.2482 407.502 66.9981 410.402 68.9981C413.302 71.098 416.002 73.448 418.501 76.0479C421.001 78.6478 423.301 81.4977 425.401 84.5977C427.601 87.6976 429.601 91.0475 431.401 94.6474C433.301 98.1473 435.001 101.897 436.501 105.897C438.001 109.897 439.401 114.097 440.7 118.497C441.9 122.797 443 127.246 444 131.846C445 136.446 445.85 141.196 446.55 146.096C447.25 150.996 447.85 155.946 448.35 160.946C448.85 165.945 449.2 170.995 449.4 176.095C449.7 181.295 449.9 186.495 450 191.695C450 196.895 449.95 202.094 449.85 207.294C449.75 212.494 449.55 217.644 449.25 222.744C448.95 227.844 448.55 232.894 448.05 237.893C447.45 242.893 446.8 247.793 446.1 252.593C445.3 257.293 444.4 261.943 443.4 266.543C442.3 271.042 441.1 275.392 439.801 279.592C438.501 283.792 437.051 287.742 435.451 291.442C433.851 295.242 432.101 298.842 430.201 302.242C428.301 305.542 426.251 308.591 424.051 311.391C421.751 314.191 419.301 316.691 416.702 318.891C414.102 321.091 411.302 322.991 408.302 324.591Z" fill="#11DE66"/>
</g>
</svg>
