<svg width="43" height="43" viewBox="0 0 43 43" fill="none" xmlns="http://www.w3.org/2000/svg">
<g clip-path="url(#clip0_3_56)">
<path d="M21.5 0.5C9.8975 0.5 0.5 9.8975 0.5 21.5C0.5 30.7925 6.51125 38.6413 14.8587 41.4238C15.9087 41.6075 16.3025 40.9775 16.3025 40.4263C16.3025 39.9275 16.2762 38.2738 16.2762 36.515C11 37.4863 9.635 35.2288 9.215 34.0475C8.97875 33.4438 7.955 31.58 7.0625 31.0813C6.3275 30.6875 5.2775 29.7163 7.03625 29.69C8.69 29.6638 9.87125 31.2125 10.265 31.8425C12.155 35.0188 15.1737 34.1263 16.3812 33.575C16.565 32.21 17.1162 31.2913 17.72 30.7663C13.0475 30.2413 8.165 28.43 8.165 20.3975C8.165 18.1138 8.97875 16.2238 10.3175 14.7538C10.1075 14.2288 9.3725 12.0763 10.5275 9.18875C10.5275 9.18875 12.2862 8.6375 16.3025 11.3413C17.9825 10.8688 19.7675 10.6325 21.5525 10.6325C23.3375 10.6325 25.1225 10.8688 26.8025 11.3413C30.8188 8.61125 32.5775 9.18875 32.5775 9.18875C33.7325 12.0763 32.9975 14.2288 32.7875 14.7538C34.1262 16.2238 34.94 18.0875 34.94 20.3975C34.94 28.4563 30.0312 30.2413 25.3587 30.7663C26.12 31.4225 26.7762 32.6825 26.7762 34.6513C26.7762 37.46 26.75 39.7175 26.75 40.4263C26.75 40.9775 27.1437 41.6338 28.1937 41.4238C32.3633 40.0174 35.9865 37.3384 38.5531 33.7641C41.1196 30.1898 42.5001 25.9003 42.5 21.5C42.5 9.8975 33.1025 0.5 21.5 0.5Z" fill="#F9F8F8"/>
</g>
<defs>
<clipPath id="clip0_3_56">
<rect width="42" height="42" fill="white" transform="translate(0.5 0.5)"/>
</clipPath>
</defs>
</svg>
