<svg width="43" height="43" viewBox="0 0 43 43" fill="none" xmlns="http://www.w3.org/2000/svg">
<g clip-path="url(#clip0_3_52)">
<path d="M0.5 3.50825C0.5 1.84663 1.88075 0.5 3.58437 0.5H39.4156C41.1193 0.5 42.5 1.84663 42.5 3.50825V39.4917C42.5 41.1534 41.1193 42.5 39.4156 42.5H3.58437C1.88075 42.5 0.5 41.1534 0.5 39.4917V3.50825ZM13.4754 35.6592V16.6936H7.17275V35.6592H13.4754ZM10.3254 14.1028C12.5225 14.1028 13.8901 12.6485 13.8901 10.8267C13.8507 8.96562 12.5251 7.55075 10.3674 7.55075C8.20963 7.55075 6.8 8.96825 6.8 10.8267C6.8 12.6485 8.16762 14.1028 10.2834 14.1028H10.3254ZM23.2089 35.6592V25.0674C23.2089 24.5004 23.2509 23.9334 23.4189 23.5291C23.873 22.3977 24.9099 21.2244 26.6529 21.2244C28.934 21.2244 29.8449 22.9621 29.8449 25.5136V35.6592H36.1475V24.7812C36.1475 18.9538 33.0395 16.2448 28.892 16.2448C25.5478 16.2448 24.0489 18.0823 23.2089 19.3764V19.442H23.1669L23.2089 19.3764V16.6936H16.9089C16.9876 18.4734 16.9089 35.6592 16.9089 35.6592H23.2089Z" fill="#F9F8F8"/>
</g>
<defs>
<clipPath id="clip0_3_52">
<rect width="42" height="42" fill="white" transform="translate(0.5 0.5)"/>
</clipPath>
</defs>
</svg>
