<svg width="417" height="417" viewBox="0 0 417 417" fill="none" xmlns="http://www.w3.org/2000/svg">
<g style="mix-blend-mode:hard-light">
<path fill-rule="evenodd" clip-rule="evenodd" d="M331.352 334.838C327.646 336.691 323.801 338.22 319.816 339.424C315.832 340.722 311.802 341.741 307.725 342.482C303.648 343.223 299.525 343.779 295.355 344.15C291.186 344.52 286.97 344.798 282.708 344.984C278.446 345.169 274.184 345.262 269.922 345.262C265.659 345.262 261.444 345.262 257.274 345.262C253.012 345.354 248.796 345.447 244.627 345.54C240.457 345.725 236.38 346.003 232.396 346.374C228.32 346.744 224.335 347.3 220.444 348.041C216.552 348.783 212.753 349.755 209.047 350.96C205.341 352.164 201.681 353.554 198.068 355.129C194.547 356.705 191.026 358.465 187.505 360.411C183.984 362.264 180.509 364.256 177.081 366.387C173.653 368.518 170.225 370.742 166.797 373.058C163.368 375.282 159.94 377.598 156.512 380.007C153.084 382.324 149.563 384.64 145.949 386.957C142.428 389.18 138.815 391.404 135.108 393.628C131.402 395.851 127.603 397.983 123.712 400.021C119.82 401.967 115.79 403.82 111.62 405.58C107.544 407.341 103.328 408.87 98.973 410.167C94.5256 411.557 90.0781 412.761 85.6307 413.78C81.0906 414.707 76.5505 415.448 72.0104 416.004C67.4703 416.56 62.9765 416.884 58.5291 416.977C54.0816 417.07 49.7268 416.884 45.4647 416.421C41.2952 415.958 37.311 415.263 33.5122 414.336C29.6207 413.317 26.0071 412.066 22.6715 410.584C19.336 409.009 16.2783 407.109 13.4987 404.885C10.8117 402.754 8.49531 400.299 6.54956 397.519C4.51114 394.647 2.98234 391.45 1.96313 387.929C0.851269 384.409 0.202683 380.563 0.0173728 376.394C-0.0752823 372.224 0.202683 367.684 0.851269 362.773C1.59251 357.955 2.61172 352.813 3.90889 347.346C5.29871 341.972 6.87385 336.367 8.6343 330.529C10.4874 324.599 12.4795 318.484 14.6105 312.184C16.649 305.883 18.78 299.444 21.0037 292.865C23.2275 286.286 25.4049 279.569 27.5359 272.712C29.667 265.949 31.7054 259.092 33.6512 252.143C35.5043 245.101 37.1721 238.059 38.6545 231.018C40.137 224.068 41.2952 217.073 42.1291 210.031C43.0557 202.989 43.5653 195.994 43.6579 189.045C43.8432 182.188 43.6579 175.378 43.102 168.614C42.6387 161.85 41.9438 155.179 41.0173 148.601C40.0907 142.022 38.9788 135.583 37.6817 129.282C36.3845 122.981 35.041 116.82 33.6512 110.797C32.2613 104.775 30.9178 98.9374 29.6207 93.2854C28.2308 87.6334 26.9337 82.2131 25.7292 77.0244C24.5246 71.743 23.5054 66.7396 22.6715 62.0142C21.8376 57.2888 21.2354 52.795 20.8648 48.5329C20.5868 44.2707 20.5868 40.2865 20.8648 36.5803C21.2354 32.8741 21.9766 29.4922 23.0885 26.4346C24.2003 23.3769 25.6828 20.5973 27.5359 18.0956C29.389 15.5939 31.5664 13.4165 34.0681 11.5634C36.4771 9.61763 39.2105 7.9035 42.2681 6.42102C45.2331 5.03119 48.3833 3.87299 51.7189 2.94644C55.1472 2.01989 58.7144 1.32497 62.4206 0.861695C66.1268 0.398418 69.9256 0.120452 73.8171 0.0277966C77.616 -0.0648587 81.5075 0.0741242 85.4917 0.444746C89.4759 0.722712 93.46 1.23232 97.4442 1.97356C101.428 2.62215 105.32 3.45604 109.119 4.47525C112.918 5.40181 116.67 6.51367 120.376 7.81085C123.99 9.10802 127.511 10.4515 130.939 11.8414C134.46 13.3238 137.888 14.8527 141.224 16.4278C144.652 18.0029 148.034 19.5317 151.369 21.0142C154.705 22.5894 158.087 24.1182 161.515 25.6007C164.851 27.0832 168.279 28.473 171.8 29.7702C175.321 31.0673 178.934 32.2255 182.641 33.2447C186.254 34.2639 190.053 35.0978 194.037 35.7464C197.929 36.395 202.005 36.812 206.268 36.9973C210.53 37.1826 214.931 37.0899 219.471 36.7193C224.104 36.3487 228.968 35.7001 234.064 34.7736C239.068 33.847 244.256 32.6425 249.63 31.16C255.004 29.7702 260.517 28.2414 266.169 26.5736C271.728 24.9058 277.38 23.1453 283.125 21.2922C288.87 19.5317 294.568 17.8176 300.22 16.1498C305.964 14.482 311.663 12.9532 317.315 11.5634C322.874 10.0809 328.341 8.87638 333.715 7.94983C339.089 7.02327 344.277 6.42102 349.281 6.14305C354.377 5.77243 359.195 5.86508 363.735 6.42102C368.368 6.97695 372.676 7.99616 376.66 9.47864C380.644 11.0538 384.351 13.1849 387.779 15.8719C391.115 18.5589 394.126 21.7555 396.813 25.4617C399.592 29.1679 402.048 33.3374 404.179 37.9702C406.217 42.6029 408.024 47.6526 409.599 53.1193C411.174 58.4933 412.471 64.1916 413.491 70.2142C414.603 76.2368 415.436 82.5374 415.992 89.1159C416.548 95.6018 416.873 102.273 416.965 109.129C417.058 115.986 416.965 122.935 416.687 129.977C416.317 137.019 415.807 144.107 415.158 151.241C414.51 158.376 413.676 165.464 412.657 172.506C411.73 179.548 410.618 186.45 409.321 193.214C408.024 200.071 406.588 206.742 405.013 213.228C403.438 219.806 401.723 226.2 399.87 232.407C398.017 238.615 396.025 244.638 393.894 250.475C391.763 256.312 389.539 261.918 387.223 267.292C384.814 272.666 382.312 277.855 379.718 282.858C377.124 287.769 374.39 292.402 371.518 296.757C368.646 301.204 365.634 305.327 362.484 309.126C359.334 312.925 356.091 316.446 352.755 319.689C349.42 322.932 345.991 325.804 342.471 328.306C338.857 330.807 335.151 332.985 331.352 334.838Z" fill="#3891A6" style="mix-blend-mode:plus-darker"/>
</g>
</svg>
