<svg width="43" height="33" viewBox="0 0 43 33" fill="none" xmlns="http://www.w3.org/2000/svg">
<path d="M0.63125 4.83188C0.895898 3.67226 1.54647 2.63688 2.47642 1.89531C3.40637 1.15373 4.56057 0.74992 5.75 0.75H37.25C38.4394 0.74992 39.5936 1.15373 40.5236 1.89531C41.4535 2.63688 42.1041 3.67226 42.3687 4.83188L21.5 17.5867L0.63125 4.83188ZM0.5 7.82963V26.4776L15.7329 17.1379L0.5 7.82963ZM18.2476 18.6787L1.00138 29.2496C1.42748 30.1481 2.10001 30.9071 2.94068 31.4383C3.78135 31.9695 4.75558 32.251 5.75 32.25H37.25C38.2443 32.2502 39.2181 31.9681 40.0583 31.4365C40.8985 30.9049 41.5705 30.1456 41.996 29.247L24.7498 18.6761L21.5 20.6633L18.2476 18.6787ZM27.2671 17.1405L42.5 26.4776V7.82963L27.2671 17.1405Z" fill="#F9F8F8"/>
</svg>
